<svg id="visual" viewBox="0 0 1900 900" width="1900" height="900" xmlns="http://www.w3.org/2000/svg" xmlns:xlink="http://www.w3.org/1999/xlink" version="1.1"><rect x="0" y="0" width="1900" height="900" fill="#bfbfbf"></rect><g transform="translate(24.751657573225202 -45.94584077372781)"><path d="M706.7 -1165.6C907.8 -1108 1057.1 -902.3 1094.7 -683.3C1132.4 -464.3 1058.4 -232.2 1039.2 -11.1C1020 210 1055.6 420 1022.8 647.3C990 874.7 888.7 1119.3 706.9 1217.8C525 1316.3 262.5 1268.7 24.7 1225.9C-213.2 1183.2 -426.3 1145.4 -589.9 1036.3C-753.4 927.3 -867.3 746.9 -948.1 562.3C-1028.8 377.7 -1076.4 188.8 -1116.2 -23C-1156.1 -234.8 -1188.2 -469.7 -1088.8 -622.1C-989.5 -774.5 -758.7 -844.5 -555.4 -900.8C-352 -957 -176 -999.5 38.4 -1066C252.8 -1132.6 505.7 -1223.2 706.7 -1165.6" fill="#61d2e9"></path></g></svg>