<svg id="visual" viewBox="0 0 1980 550" width="1980" height="550" xmlns="http://www.w3.org/2000/svg" xmlns:xlink="http://www.w3.org/1999/xlink" version="1.1"><path d="M0 95L55 97.7C110 100.3 220 105.7 330 99.2C440 92.7 550 74.3 660 70.7C770 67 880 78 990 97.3C1100 116.7 1210 144.3 1320 153.5C1430 162.7 1540 153.3 1650 152.3C1760 151.3 1870 158.7 1925 162.3L1980 166L1980 0L1925 0C1870 0 1760 0 1650 0C1540 0 1430 0 1320 0C1210 0 1100 0 990 0C880 0 770 0 660 0C550 0 440 0 330 0C220 0 110 0 55 0L0 0Z" fill="#4b1993"></path><path d="M0 194L55 190.3C110 186.7 220 179.3 330 170.2C440 161 550 150 660 149C770 148 880 157 990 165.2C1100 173.3 1210 180.7 1320 195.3C1430 210 1540 232 1650 239.3C1760 246.7 1870 239.3 1925 235.7L1980 232L1980 164L1925 160.3C1870 156.7 1760 149.3 1650 150.3C1540 151.3 1430 160.7 1320 151.5C1210 142.3 1100 114.7 990 95.3C880 76 770 65 660 68.7C550 72.3 440 90.7 330 97.2C220 103.7 110 98.3 55 95.7L0 93Z" fill="#591cae"></path><path d="M0 331L55 314.5C110 298 220 265 330 256.8C440 248.7 550 265.3 660 292.8C770 320.3 880 358.7 990 356.8C1100 355 1210 313 1320 323.2C1430 333.3 1540 395.7 1650 416.7C1760 437.7 1870 417.3 1925 407.2L1980 397L1980 230L1925 233.7C1870 237.3 1760 244.7 1650 237.3C1540 230 1430 208 1320 193.3C1210 178.7 1100 171.3 990 163.2C880 155 770 146 660 147C550 148 440 159 330 168.2C220 177.3 110 184.7 55 188.3L0 192Z" fill="#671ec9"></path><path d="M0 441L55 451.2C110 461.3 220 481.7 330 484.5C440 487.3 550 472.7 660 466.2C770 459.7 880 461.3 990 468.7C1100 476 1210 489 1320 499.2C1430 509.3 1540 516.7 1650 523C1760 529.3 1870 534.7 1925 537.3L1980 540L1980 395L1925 405.2C1870 415.3 1760 435.7 1650 414.7C1540 393.7 1430 331.3 1320 321.2C1210 311 1100 353 990 354.8C880 356.7 770 318.3 660 290.8C550 263.3 440 246.7 330 254.8C220 263 110 296 55 312.5L0 329Z" fill="#7f43d2"></path><path d="M0 551L55 551C110 551 220 551 330 551C440 551 550 551 660 551C770 551 880 551 990 551C1100 551 1210 551 1320 551C1430 551 1540 551 1650 551C1760 551 1870 551 1925 551L1980 551L1980 538L1925 535.3C1870 532.7 1760 527.3 1650 521C1540 514.7 1430 507.3 1320 497.2C1210 487 1100 474 990 466.7C880 459.3 770 457.7 660 464.2C550 470.7 440 485.3 330 482.5C220 479.7 110 459.3 55 449.2L0 439Z" fill="#9561db"></path></svg>